<svg xmlns="http://www.w3.org/2000/svg" version="1.1" xmlns:xlink="http://www.w3.org/1999/xlink" width="1024" height="1024"><svg width="1024" height="1024" viewBox="0 0 1024 1024" fill="none" xmlns="http://www.w3.org/2000/svg">
<g clip-path="url(#clip0_1042_29)">
<rect width="1024" height="1024" fill="#501111"></rect>
<path fill-rule="evenodd" clip-rule="evenodd" d="M754.431 76.8638H270.683C220.641 76.8638 172.648 96.743 137.262 132.129C101.877 167.514 81.997 215.507 81.997 265.55V758.299C81.997 808.342 101.877 856.335 137.262 891.72C172.648 927.106 220.641 946.985 270.683 946.985H754.431C779.219 947 803.768 942.131 826.673 932.655C849.579 923.18 870.393 909.283 887.926 891.761C905.46 874.238 919.368 853.433 928.858 830.533C938.347 807.633 943.232 783.088 943.232 758.299V265.531C943.229 240.744 938.343 216.201 928.852 193.303C919.362 170.405 905.452 149.602 887.919 132.081C870.387 114.561 849.574 100.666 826.669 91.192C803.765 81.7175 779.218 76.8487 754.431 76.8638ZM259.279 40H765.683C793.828 39.9975 821.698 45.5393 847.701 56.3088C873.705 67.0784 897.332 82.8647 917.234 102.766C937.135 122.668 952.922 146.295 963.691 172.298C974.461 198.302 980.003 226.172 980 254.317C980 425.954 980 597.705 980 769.57C980.003 797.714 974.461 825.582 963.693 851.584C952.925 877.586 937.14 901.212 917.24 921.114C897.341 941.015 873.716 956.802 847.715 967.573C821.714 978.343 793.846 983.887 765.702 983.887H259.279C202.442 983.877 147.936 961.29 107.752 921.095C67.5673 880.9 44.9949 826.388 45 769.551V254.279C45.0101 197.452 67.589 142.955 107.772 102.772C147.955 62.5891 202.452 40.0101 259.279 40Z" fill="#DA3B3B"></path>
<mask id="SvgjsMask1079" style="mask-type:luminance" maskUnits="userSpaceOnUse" x="54" y="40" width="916" height="941">
<path d="M970 40H54V980.808H970V40Z" fill="white"></path>
</mask>
<g mask="url(#mask0_1042_29)">
<g opacity="0.2">
<mask id="SvgjsMask1078" style="mask-type:luminance" maskUnits="userSpaceOnUse" x="267" y="818" width="556" height="712">
<path d="M822.276 818.409H267.638V1529.24H822.276V818.409Z" fill="white"></path>
</mask>
<g mask="url(#mask1_1042_29)">
<mask id="SvgjsMask1077" style="mask-type:luminance" maskUnits="userSpaceOnUse" x="267" y="818" width="556" height="708">
<path d="M289.947 1472.26L411.412 1525.28L597.475 1431.79L596.444 1016.55L632.397 1020.12L818.25 990.159L822.124 818.409L635.966 822.378L267.638 820.871L289.947 1472.26Z" fill="white"></path>
</mask>
<g mask="url(#mask2_1042_29)">
<path d="M822.143 818.409H267.638V1525.28H822.143V818.409Z" fill="url(#paint0_linear_1042_29)"></path>
</g>
</g>
<mask id="SvgjsMask1076" style="mask-type:luminance" maskUnits="userSpaceOnUse" x="267" y="819" width="370" height="710">
<path d="M636.023 819.535H267.639V1528.14H636.023V819.535Z" fill="white"></path>
</mask>
<g mask="url(#mask3_1042_29)">
<mask id="SvgjsMask1075" style="mask-type:luminance" maskUnits="userSpaceOnUse" x="267" y="820" width="369" height="706">
<path d="M289.947 1472.26L411.413 1525.28L402.882 997.373L632.398 1020.12L635.966 822.379L267.639 820.871L289.947 1472.26Z" fill="white"></path>
</mask>
<g mask="url(#mask4_1042_29)">
<path d="M273.615 774.004L178.213 1513.62L629.914 1571.88L725.316 832.269L273.615 774.004Z" fill="url(#paint1_linear_1042_29)"></path>
</g>
</g>
<path fill-rule="evenodd" clip-rule="evenodd" d="M308.839 950.752L365.574 954.321V859.362L308.839 856.939V950.752Z" fill="#FFFF00"></path>
<path fill-rule="evenodd" clip-rule="evenodd" d="M308.839 950.752L365.574 954.321L315.748 943.692L308.839 856.939V950.752Z" fill="#C8C803"></path>
<path fill-rule="evenodd" clip-rule="evenodd" d="M418.511 957.45L587.342 972.278V862.95L418.511 859.457V957.45Z" fill="#FFFF00"></path>
<path fill-rule="evenodd" clip-rule="evenodd" d="M418.511 957.45L587.342 972.278L425.858 951.019L418.511 859.457V957.45Z" fill="#C8C803"></path>
<path fill-rule="evenodd" clip-rule="evenodd" d="M690.105 965.714L771.095 954.035L770.923 825.241L689.17 826.214L690.105 965.714Z" fill="#CECE08"></path>
<path fill-rule="evenodd" clip-rule="evenodd" d="M690.105 965.714L771.095 953.29L770.923 825.241L764.301 824.726L764.149 948.844L697.433 958.366L696.918 826.119L689.17 826.214L690.105 965.714Z" fill="#F45959"></path>
<path d="M764.263 824.726H756.229V945.237H764.263V824.726Z" fill="#E7E700"></path>
<rect x="267.734" y="822.417" width="562.958" height="158.392" fill="url(#paint2_linear_1042_29)"></rect>
</g>
</g>
<mask id="SvgjsMask1074" style="mask-type:luminance" maskUnits="userSpaceOnUse" x="267" y="119" width="556" height="704">
<path d="M289.89 172.839L411.336 119.826L597.417 213.315L596.368 628.549L632.321 625L818.173 654.941L822.143 819.325L635.889 822.722L267.6 821.73L289.89 172.839Z" fill="white"></path>
</mask>
<g mask="url(#mask5_1042_29)">
<path d="M822.143 119.826H267.6V822.722H822.143V119.826Z" fill="url(#paint3_linear_1042_29)"></path>
</g>
<mask id="SvgjsMask1073" style="mask-type:luminance" maskUnits="userSpaceOnUse" x="267" y="119" width="369" height="704">
<path d="M289.89 172.839L411.336 119.826L402.825 647.728L632.321 625L635.889 822.722L267.6 821.73L289.89 172.839Z" fill="white"></path>
</mask>
<g mask="url(#mask6_1042_29)">
<path d="M633.624 63.7377L182.962 122.915L279.715 859.723L730.376 800.545L633.624 63.7377Z" fill="url(#paint4_linear_1042_29)"></path>
</g>
<path fill-rule="evenodd" clip-rule="evenodd" d="M317.674 259.497L374.39 247.322V345.181L317.674 357.337V259.497Z" fill="#FFFF00"></path>
<path fill-rule="evenodd" clip-rule="evenodd" d="M374.391 247.322V345.181L317.656 357.337C343.876 335.849 363.227 300.087 374.391 247.322Z" fill="#FFFF98"></path>
<path fill-rule="evenodd" clip-rule="evenodd" d="M317.674 259.497L374.39 247.322L323.762 264.611L317.674 357.337V259.497Z" fill="#C8C803"></path>
<path fill-rule="evenodd" clip-rule="evenodd" d="M314.832 399.301L371.566 388.843V486.703L314.832 497.141V399.301Z" fill="#FFFF00"></path>
<path fill-rule="evenodd" clip-rule="evenodd" d="M371.566 388.843V486.703L314.832 497.16C345.365 478.344 364.601 442.62 371.566 388.862" fill="#FFFF98"></path>
<path fill-rule="evenodd" clip-rule="evenodd" d="M314.832 399.301L371.566 388.843L322.026 405.026L314.832 497.141V399.301Z" fill="#C8C803"></path>
<path fill-rule="evenodd" clip-rule="evenodd" d="M311.587 542.808L368.302 534.85V632.69L311.587 640.667V542.808Z" fill="#FFFF00"></path>
<path fill-rule="evenodd" clip-rule="evenodd" d="M368.302 534.85V632.709L311.625 640.667C336.758 625.133 354.619 586.547 368.359 534.85" fill="#FFFF98"></path>
<path fill-rule="evenodd" clip-rule="evenodd" d="M311.587 542.808L368.302 534.85L319.334 550.956L311.587 640.667V542.808Z" fill="#C8C803"></path>
<path fill-rule="evenodd" clip-rule="evenodd" d="M308.763 694.348L365.497 690.799V785.739L308.763 788.162V694.348Z" fill="#FFFF00"></path>
<path fill-rule="evenodd" clip-rule="evenodd" d="M365.497 690.742V785.7L308.763 788.124C335.918 776.159 355.841 746.141 365.497 690.799" fill="#FFFF98"></path>
<path fill-rule="evenodd" clip-rule="evenodd" d="M308.763 694.348L365.497 690.799L315.671 701.429L308.763 788.162V694.348Z" fill="#C8C803"></path>
<path fill-rule="evenodd" clip-rule="evenodd" d="M418.435 687.669L587.265 672.822V782.169L418.435 785.643V687.669Z" fill="#FFFF00"></path>
<path fill-rule="evenodd" clip-rule="evenodd" d="M587.265 672.822V782.15L418.492 785.643C494.157 773.983 552.419 739.003 587.322 672.822" fill="#FFFFCB"></path>
<path fill-rule="evenodd" clip-rule="evenodd" d="M418.435 687.669L587.265 672.822L425.782 694.081L418.435 785.643V687.669Z" fill="#C8C803"></path>
<path fill-rule="evenodd" clip-rule="evenodd" d="M560.625 286.633L449.216 241.825V331.899L560.625 376.725V286.633Z" fill="#DADA03"></path>
<path fill-rule="evenodd" clip-rule="evenodd" d="M560.625 286.633L449.216 241.825V331.899L560.625 376.725V286.633Z" fill="#AAAA05"></path>
<path fill-rule="evenodd" clip-rule="evenodd" d="M560.625 286.633L449.216 241.825V252.092L560.625 294.992V286.633Z" fill="#939303"></path>
<path fill-rule="evenodd" clip-rule="evenodd" d="M558.736 430.846L447.327 385.79V473.802L558.736 518.839V430.846Z" fill="#DADA03"></path>
<path fill-rule="evenodd" clip-rule="evenodd" d="M558.736 430.846L447.327 385.79V473.802L558.736 518.839V430.846Z" fill="#AAAA05"></path>
<path fill-rule="evenodd" clip-rule="evenodd" d="M558.736 430.846L447.327 385.79V395.618L558.736 437.639V430.846Z" fill="#939303"></path>
<path fill-rule="evenodd" clip-rule="evenodd" d="M558.831 568.97L447.422 532.598V625.228L493.795 631.698H559.861L558.831 568.97Z" fill="#DADA03"></path>
<path fill-rule="evenodd" clip-rule="evenodd" d="M558.831 568.97L447.422 532.598V625.228L493.795 631.698H559.861L558.831 568.97Z" fill="#AAAA05"></path>
<path fill-rule="evenodd" clip-rule="evenodd" d="M558.831 568.97L447.422 532.598V544.811L558.983 578.703L558.831 568.97Z" fill="#939303"></path>
<path fill-rule="evenodd" clip-rule="evenodd" d="M690.029 679.406L771.018 691.066L770.847 819.879L689.094 818.905L690.029 679.406Z" fill="#CECE08"></path>
<path fill-rule="evenodd" clip-rule="evenodd" d="M690.029 679.406L771.018 691.811L770.847 819.879L764.225 820.375L764.072 696.257L697.376 686.734L696.842 818.982L689.094 818.905L690.029 679.406Z" fill="#F45959"></path>
<path d="M560.624 291.671H552.59V371.096H560.624V291.671Z" fill="#EFEF00"></path>
<path d="M558.736 431.037H550.702V512.503H558.736V431.037Z" fill="#D0D000"></path>
<path d="M559.632 571.395H551.598V626.908H559.632V571.395Z" fill="#CBCB05"></path>
<path d="M764.186 699.864H756.152V820.375H764.186V699.864Z" fill="#E7E700"></path>
<mask id="SvgjsMask1072" style="mask-type:luminance" maskUnits="userSpaceOnUse" x="0" y="0" width="1024" height="1024">
<path d="M1024 0H0V1023.96H1024V0Z" fill="white"></path>
</mask>
<g mask="url(#mask7_1042_29)">
<path d="M1024 0H0V1023.96H1024V0Z" fill="url(#paint5_linear_1042_29)"></path>
</g>
<mask id="SvgjsMask1071" style="mask-type:luminance" maskUnits="userSpaceOnUse" x="0" y="0" width="1002" height="1024">
<path d="M1001.05 0H0V1024H1001.05V0Z" fill="white"></path>
</mask>
<g mask="url(#mask8_1042_29)">
<g opacity="0.2">
<mask id="SvgjsMask1070" style="mask-type:luminance" maskUnits="userSpaceOnUse" x="234" y="843" width="608" height="772">
<path d="M841.066 843.906H234.06V1614.53H841.066V843.906Z" fill="white"></path>
</mask>
<g mask="url(#mask9_1042_29)">
<mask id="SvgjsMask1069" style="mask-type:luminance" maskUnits="userSpaceOnUse" x="234" y="843" width="607" height="768">
<path d="M258.495 1552.78L391.429 1610.23L595.06 1508.88L593.932 1058.72L633.28 1062.58L836.659 1030.1L840.92 843.906L637.185 848.23L234.06 846.596L258.495 1552.78Z" fill="white"></path>
</mask>
<g mask="url(#mask10_1042_29)">
<path d="M840.92 843.906H234.06V1610.23H840.92V843.906Z" fill="url(#paint6_linear_1042_29)"></path>
</g>
</g>
<mask id="SvgjsMask1068" style="mask-type:luminance" maskUnits="userSpaceOnUse" x="234" y="845" width="404" height="769">
<path d="M637.227 845.127H234.06V1613.33H637.227V845.127Z" fill="white"></path>
</mask>
<g mask="url(#mask11_1042_29)">
<mask id="SvgjsMask1067" style="mask-type:luminance" maskUnits="userSpaceOnUse" x="234" y="846" width="404" height="765">
<path d="M258.495 1552.78L391.429 1610.23L382.094 1037.92L633.28 1062.58L637.185 848.23L234.06 846.596L258.495 1552.78Z" fill="white"></path>
</mask>
<g mask="url(#mask12_1042_29)">
<path d="M240.601 795.799L136.191 1597.62L630.541 1660.79L734.951 858.965L240.601 795.799Z" fill="url(#paint7_linear_1042_29)"></path>
</g>
</g>
<path fill-rule="evenodd" clip-rule="evenodd" d="M279.172 987.382L341.264 991.25V888.304L279.172 885.677V987.382Z" fill="#FFFF00"></path>
<path fill-rule="evenodd" clip-rule="evenodd" d="M279.172 987.382L341.264 991.25L286.733 979.727L279.172 885.677V987.382Z" fill="#C8C803"></path>
<path fill-rule="evenodd" clip-rule="evenodd" d="M399.198 994.643L583.948 1010.72V892.193L399.198 888.407V994.643Z" fill="#FFFF00"></path>
<path fill-rule="evenodd" clip-rule="evenodd" d="M399.198 994.643L583.948 1010.72L407.218 987.671L399.198 888.407V994.643Z" fill="#C8C803"></path>
<path fill-rule="evenodd" clip-rule="evenodd" d="M696.416 1003.6L785.052 990.96L784.885 851.313L695.413 852.368L696.416 1003.6Z" fill="#CECE08"></path>
<path fill-rule="evenodd" clip-rule="evenodd" d="M696.416 1003.6L785.052 990.133L784.885 851.313L777.617 850.754L777.471 985.312L704.456 995.636L703.892 852.264L695.413 852.368L696.416 1003.6Z" fill="#F45959"></path>
<path d="M777.575 850.754H768.782V981.402H777.575V850.754Z" fill="#E7E700"></path>
<rect x="234.56" y="848.147" width="616.113" height="175.853" fill="url(#paint8_linear_1042_29)"></rect>
</g>
</g>
<mask id="SvgjsMask1066" style="mask-type:luminance" maskUnits="userSpaceOnUse" x="234" y="86" width="607" height="763">
<path d="M258.413 144.034L391.347 86.5608L594.977 187.914L593.849 638.076L633.197 634.228L836.577 666.709L840.942 844.899L637.102 848.582L234.04 847.506L258.413 144.034Z" fill="white"></path>
</mask>
<g mask="url(#mask13_1042_29)">
<path d="M840.942 86.5608H234.04V848.582H840.942V86.5608Z" fill="url(#paint9_linear_1042_29)"></path>
</g>
<mask id="SvgjsMask1065" style="mask-type:luminance" maskUnits="userSpaceOnUse" x="234" y="86" width="404" height="763">
<path d="M258.413 144.034L391.347 86.5608L382.011 658.889L633.197 634.228L637.102 848.582L234.04 847.506L258.413 144.034Z" fill="white"></path>
</mask>
<g mask="url(#mask14_1042_29)">
<path d="M630.438 35.9647L136.337 99.0989L240.539 899.322L734.64 836.188L630.438 35.9647Z" fill="url(#paint10_linear_1042_29)"></path>
</g>
<path fill-rule="evenodd" clip-rule="evenodd" d="M288.821 237.98L350.913 224.802V330.872L288.821 344.05V237.98Z" fill="#FFFF00"></path>
<path fill-rule="evenodd" clip-rule="evenodd" d="M350.913 224.802V330.934L288.863 344.05C317.559 320.755 338.737 281.985 350.954 224.781" fill="#FFFF98"></path>
<path fill-rule="evenodd" clip-rule="evenodd" d="M288.821 237.98L350.913 224.802L295.505 243.525L288.821 344.05V237.98Z" fill="#C8C803"></path>
<path fill-rule="evenodd" clip-rule="evenodd" d="M285.73 389.544L347.822 378.207V484.298L285.73 495.615V389.544Z" fill="#FFFF00"></path>
<path fill-rule="evenodd" clip-rule="evenodd" d="M347.822 378.207V484.298L285.73 495.635C319.146 475.236 340.198 436.507 347.822 378.228" fill="#FFFF98"></path>
<path fill-rule="evenodd" clip-rule="evenodd" d="M285.73 389.544L347.822 378.207L293.604 395.772L285.73 495.615V389.544Z" fill="#C8C803"></path>
<path fill-rule="evenodd" clip-rule="evenodd" d="M282.159 545.122L344.25 536.495V642.565L282.159 651.213V545.122Z" fill="#FFFF00"></path>
<path fill-rule="evenodd" clip-rule="evenodd" d="M344.25 536.495V642.586L282.159 651.234C309.664 634.393 329.213 592.561 344.25 536.516" fill="#FFFF98"></path>
<path fill-rule="evenodd" clip-rule="evenodd" d="M282.159 545.122L344.25 536.495L290.659 553.956L282.159 651.213V545.122Z" fill="#C8C803"></path>
<path fill-rule="evenodd" clip-rule="evenodd" d="M279.088 709.41L341.179 705.562V808.487L279.088 811.115V709.41Z" fill="#FFFF00"></path>
<path fill-rule="evenodd" clip-rule="evenodd" d="M341.076 705.562V808.508L278.984 811.136C308.704 798.164 330.508 765.621 341.076 705.624" fill="#FFFF98"></path>
<path fill-rule="evenodd" clip-rule="evenodd" d="M279.088 709.41L341.179 705.562L286.648 717.086L279.088 811.115V709.41Z" fill="#C8C803"></path>
<path fill-rule="evenodd" clip-rule="evenodd" d="M399.116 702.169L583.887 686.073V804.619L399.116 808.405V702.169Z" fill="#FFFF00"></path>
<path fill-rule="evenodd" clip-rule="evenodd" d="M583.887 686.073V804.701L399.116 808.487C481.925 795.847 545.688 757.925 583.887 686.177" fill="#FFFFCB"></path>
<path fill-rule="evenodd" clip-rule="evenodd" d="M399.116 702.169L583.887 686.073L407.157 709.12L399.116 808.405V702.169Z" fill="#C8C803"></path>
<path fill-rule="evenodd" clip-rule="evenodd" d="M554.731 267.42L432.803 218.823V316.473L554.731 365.07V267.42Z" fill="#DADA03"></path>
<path fill-rule="evenodd" clip-rule="evenodd" d="M554.731 267.42L432.803 218.823V316.473L554.731 365.07V267.42Z" fill="#AAAA05"></path>
<path fill-rule="evenodd" clip-rule="evenodd" d="M554.731 267.42L432.803 218.823V229.953L554.731 276.461V267.42Z" fill="#939303"></path>
<path fill-rule="evenodd" clip-rule="evenodd" d="M552.664 423.743L430.736 374.897V470.312L552.664 519.158V423.743Z" fill="#DADA03"></path>
<path fill-rule="evenodd" clip-rule="evenodd" d="M552.664 423.743L430.736 374.897V470.312L552.664 519.158V423.743Z" fill="#AAAA05"></path>
<path fill-rule="evenodd" clip-rule="evenodd" d="M552.664 423.743L430.736 374.897V385.552L552.664 431.108V423.743Z" fill="#939303"></path>
<path fill-rule="evenodd" clip-rule="evenodd" d="M552.768 573.486L430.84 534.054V634.476L481.57 641.49H553.875L552.768 573.486Z" fill="#DADA03"></path>
<path fill-rule="evenodd" clip-rule="evenodd" d="M552.768 573.486L430.84 534.054V634.476L481.57 641.49H553.875L552.768 573.486Z" fill="#AAAA05"></path>
<path fill-rule="evenodd" clip-rule="evenodd" d="M552.768 573.486L430.84 534.054V547.295L552.935 584.037L552.768 573.486Z" fill="#939303"></path>
<path fill-rule="evenodd" clip-rule="evenodd" d="M696.353 693.211L784.969 705.851L784.802 845.499L695.33 844.444L696.353 693.211Z" fill="#CECE08"></path>
<path fill-rule="evenodd" clip-rule="evenodd" d="M696.353 693.211L784.969 706.658L784.802 845.499L777.555 846.037L777.388 711.479L704.373 701.155L703.809 844.547L695.33 844.444L696.353 693.211Z" fill="#F45959"></path>
<path d="M554.731 272.882H545.938V358.988H554.731V272.882Z" fill="#EFEF00"></path>
<path d="M552.664 423.95H543.871V512.269H552.664V423.95Z" fill="#D0D000"></path>
<path d="M553.645 576.114H544.852V636.297H553.645V576.114Z" fill="#CBCB05"></path>
<path d="M777.513 715.389H768.72V846.037H777.513V715.389Z" fill="#E7E700"></path>
<g clip-path="url(#clip1_1042_29)">
<rect width="1024" height="1024" fill="white"></rect>
<g clip-path="url(#clip2_1042_29)">
<rect width="1024" height="1024" fill="#588CD1"></rect>
<path d="M528.375 565.628C528.375 565.628 531.678 571.38 529.467 574.479C527.257 577.577 520.46 577.324 520.46 577.324L146.844 353.283C146.844 353.283 140.718 348.987 144.354 343.739C147.991 338.491 154.83 341.712 154.83 341.712L528.375 565.628Z" fill="url(#paint11_linear_1042_29)"></path>
<path d="M160.887 784.191C160.887 784.191 157.628 790.386 153.766 790.609C149.903 790.832 146.672 785.206 146.672 785.206L140.299 349.724C140.299 349.724 140.836 342.265 147.202 341.768C153.568 341.271 154.389 348.781 154.389 348.781L160.887 784.191Z" fill="url(#paint12_linear_1042_29)"></path>
<path d="M527.882 563.915C555.234 614.485 561.748 673.74 546.036 729.045C530.324 784.35 493.628 831.329 443.774 859.965C393.919 888.601 334.851 896.628 279.162 882.336C223.473 868.043 175.572 832.561 145.67 783.455C150.256 778.991 527.092 562.54 527.882 563.915Z" fill="url(#paint13_linear_1042_29)"></path>
<path d="M637.136 64.5115C642.689 74.1218 645.266 85.1637 644.54 96.2394C643.815 107.315 639.82 117.926 633.06 126.73C626.301 135.534 617.081 142.134 606.569 145.695C596.056 149.257 584.723 149.619 574.005 146.736C563.286 143.853 553.664 137.855 546.356 129.501C539.049 121.147 534.384 110.813 532.952 99.806C531.521 88.7993 533.387 77.6154 538.315 67.67C543.243 57.7246 551.011 49.4649 560.636 43.9366C573.513 36.5398 588.798 34.552 603.139 38.409C617.48 42.266 629.706 51.653 637.136 64.5115Z" fill="#FFFEF5"></path>
<path d="M1001.57 -145.983C1003.78 -142.444 1004.62 -138.215 1003.91 -134.102C1003.21 -129.988 1001.02 -126.277 997.758 -123.673L158.942 358.137C155.162 358.57 151.34 357.85 147.976 356.074C144.612 354.298 141.862 351.547 140.088 348.182C138.01 345.288 137.077 341.728 137.468 338.187C137.86 334.646 139.549 331.375 142.209 329.005L980.525 -152.517C982.332 -153.491 984.314 -154.095 986.357 -154.293C988.4 -154.491 990.461 -154.28 992.421 -153.671C994.381 -153.063 996.2 -152.069 997.771 -150.749C999.342 -149.429 1000.63 -147.809 1001.57 -145.983Z" fill="#FFFEF5"></path>
<path d="M1482 169.102H0V454.894H1482V169.102Z" fill="#FCFCFC" fill-opacity="0.48"></path>
<path d="M889.737 -400H592.949V1024H889.737V-400Z" fill="white" fill-opacity="0.48"></path>
</g>
</g>
<g clip-path="url(#clip3_1042_29)">
<rect width="1024" height="1024" fill="#2E2B5F"></rect>
<path d="M1482 169.102H0V454.894H1482V169.102Z" fill="#E63946" fill-opacity="0.49"></path>
<path d="M889.737 -400H592.949V1024H889.737V-400Z" fill="#A7C957" fill-opacity="0.57"></path>
<path d="M528.375 565.628C528.375 565.628 531.678 571.38 529.467 574.479C527.257 577.577 520.46 577.324 520.46 577.324L146.844 353.283C146.844 353.283 140.718 348.987 144.354 343.739C147.991 338.491 154.83 341.712 154.83 341.712L528.375 565.628Z" fill="#F4A261"></path>
<path d="M160.887 784.191C160.887 784.191 157.628 790.386 153.766 790.609C149.903 790.832 146.672 785.206 146.672 785.206L140.299 349.724C140.299 349.724 140.836 342.265 147.202 341.768C153.568 341.271 154.389 348.781 154.389 348.781L160.887 784.191Z" fill="#F4A261"></path>
<path d="M527.882 563.915C555.234 614.485 561.748 673.74 546.036 729.045C530.324 784.35 493.628 831.329 443.774 859.965C393.919 888.601 334.851 896.628 279.162 882.336C223.473 868.043 175.572 832.561 145.67 783.455C150.256 778.991 527.092 562.54 527.882 563.915Z" fill="url(#paint14_linear_1042_29)"></path>
<path d="M637.136 64.5115C642.689 74.1218 645.266 85.1637 644.54 96.2394C643.815 107.315 639.82 117.926 633.06 126.73C626.301 135.534 617.081 142.134 606.569 145.695C596.056 149.257 584.723 149.619 574.005 146.736C563.286 143.853 553.664 137.855 546.356 129.501C539.049 121.147 534.384 110.813 532.952 99.806C531.521 88.7993 533.387 77.6154 538.315 67.67C543.243 57.7246 551.011 49.4649 560.636 43.9366C573.513 36.5398 588.798 34.552 603.139 38.409C617.48 42.266 629.706 51.653 637.136 64.5115Z" fill="#F4A261"></path>
<path d="M1001.57 -145.983C1003.78 -142.444 1004.62 -138.215 1003.91 -134.102C1003.21 -129.988 1001.02 -126.277 997.758 -123.673L158.942 358.137C155.162 358.57 151.34 357.85 147.976 356.074C144.612 354.298 141.862 351.547 140.088 348.182C138.01 345.288 137.077 341.728 137.468 338.187C137.86 334.646 139.549 331.375 142.209 329.005L980.525 -152.517C982.332 -153.491 984.314 -154.095 986.357 -154.293C988.4 -154.491 990.461 -154.28 992.421 -153.671C994.381 -153.063 996.2 -152.069 997.771 -150.749C999.342 -149.429 1000.63 -147.809 1001.57 -145.983Z" fill="#F4A261"></path>
</g>
<g clip-path="url(#clip4_1042_29)">
<g clip-path="url(#clip5_1042_29)">
<rect width="1024" height="1024" fill="url(#paint15_linear_1042_29)"></rect>
<rect x="-132.909" y="-3.09128" width="1062" height="988" rx="28" transform="rotate(17.1859 -132.909 -3.09128)" fill="url(#paint16_linear_1042_29)"></rect>
<rect x="-460.048" y="274" width="1062" height="988" rx="28" transform="rotate(7.67516 -460.048 274)" fill="url(#paint17_linear_1042_29)"></rect>
</g>
</g>
<g clip-path="url(#clip6_1042_29)">
<rect width="1024" height="1024" fill="white"></rect>
<path d="M203.833 721.25H854.25V163.75L203.833 721.25Z" fill="#1A1A1A"></path>
<path d="M203.833 163.75H668.417L203.833 628.333V163.75Z" fill="#D3222A"></path>
<path opacity="0.15" d="M343.208 210.208H575.5L343.208 442.5V210.208Z" fill="white"></path>
<path d="M714.875 396.042L807.792 349.583V442.5L714.875 396.042Z" fill="#F4F1EA"></path>
<path d="M621.958 646.917L668.417 721.25L714.875 646.917H621.958Z" fill="#F4F1EA"></path>
<path d="M742.75 646.917L789.208 721.25L835.667 646.917H742.75Z" fill="#F4F1EA"></path>
<path d="M947.167 814.167H110.917V869.917H947.167V814.167Z" fill="#1A1A1A"></path>
</g>
</g>
<defs>
<linearGradient id="SvgjsLinearGradient1064" x1="525.058" y1="1563.11" x2="525.058" y2="853.133" gradientUnits="userSpaceOnUse">
<stop stop-color="#B21B1B"></stop>
<stop offset="0.22" stop-color="#B21D1D"></stop>
<stop offset="1" stop-color="#8E0B0B"></stop>
</linearGradient>
<linearGradient id="SvgjsLinearGradient1063" x1="412.266" y1="1577.07" x2="504.648" y2="860.874" gradientUnits="userSpaceOnUse">
<stop stop-color="#DA3A3A"></stop>
<stop offset="0.78" stop-color="#DA3A3A"></stop>
<stop offset="1" stop-color="#981F1F"></stop>
</linearGradient>
<linearGradient id="SvgjsLinearGradient1062" x1="548.259" y1="854.095" x2="548.259" y2="940.601" gradientUnits="userSpaceOnUse">
<stop stop-color="#4A100F" stop-opacity="0"></stop>
<stop offset="1" stop-color="#4A0F0F"></stop>
</linearGradient>
<linearGradient id="SvgjsLinearGradient1061" x1="535.269" y1="74.1698" x2="535.269" y2="776.221" gradientUnits="userSpaceOnUse">
<stop stop-color="#B21B1B"></stop>
<stop offset="0.22" stop-color="#B21D1D"></stop>
<stop offset="1" stop-color="#8E0B0B"></stop>
</linearGradient>
<linearGradient id="SvgjsLinearGradient1060" x1="433.935" y1="121.004" x2="527.806" y2="835.873" gradientUnits="userSpaceOnUse">
<stop stop-color="#DA3A3A"></stop>
<stop offset="0.78" stop-color="#DA3A3A"></stop>
<stop offset="1" stop-color="#981F1F"></stop>
</linearGradient>
<linearGradient id="SvgjsLinearGradient1059" x1="513.951" y1="-78.5031" x2="513.951" y2="1124.77" gradientUnits="userSpaceOnUse">
<stop stop-color="#551111"></stop>
<stop offset="1" stop-color="#3D0D0D"></stop>
</linearGradient>
<linearGradient id="SvgjsLinearGradient1058" x1="514.093" y1="1652.42" x2="514.093" y2="882.724" gradientUnits="userSpaceOnUse">
<stop stop-color="#B21B1B"></stop>
<stop offset="0.22" stop-color="#B21D1D"></stop>
<stop offset="1" stop-color="#8E0B0B"></stop>
</linearGradient>
<linearGradient id="SvgjsLinearGradient1057" x1="392.441" y1="1666.5" x2="491.681" y2="889.83" gradientUnits="userSpaceOnUse">
<stop stop-color="#DA3A3A"></stop>
<stop offset="0.78" stop-color="#DA3A3A"></stop>
<stop offset="1" stop-color="#981F1F"></stop>
</linearGradient>
<linearGradient id="SvgjsLinearGradient1056" x1="541.572" y1="883.318" x2="541.572" y2="979.36" gradientUnits="userSpaceOnUse">
<stop stop-color="#4A100F" stop-opacity="0"></stop>
<stop offset="1" stop-color="#4A0F0F"></stop>
</linearGradient>
<linearGradient id="SvgjsLinearGradient1055" x1="528.378" y1="39.2635" x2="528.378" y2="800.368" gradientUnits="userSpaceOnUse">
<stop stop-color="#B21B1B"></stop>
<stop offset="0.22" stop-color="#B21D1D"></stop>
<stop offset="1" stop-color="#8E0B0B"></stop>
</linearGradient>
<linearGradient id="SvgjsLinearGradient1054" x1="410.418" y1="97.4526" x2="509.653" y2="874.087" gradientUnits="userSpaceOnUse">
<stop stop-color="#DA3A3A"></stop>
<stop offset="0.78" stop-color="#DA3A3A"></stop>
<stop offset="1" stop-color="#981F1F"></stop>
</linearGradient>
<linearGradient id="SvgjsLinearGradient1053" x1="238.963" y1="288.59" x2="434.707" y2="629.373" gradientUnits="userSpaceOnUse">
<stop stop-color="#FFFEF5"></stop>
<stop offset="1" stop-color="#FDFCEF"></stop>
</linearGradient>
<linearGradient id="SvgjsLinearGradient1052" x1="52.4268" y1="395.401" x2="248.484" y2="736.73" gradientUnits="userSpaceOnUse">
<stop stop-color="#FFFEF5"></stop>
<stop offset="1" stop-color="#FDFCEF"></stop>
</linearGradient>
<linearGradient id="SvgjsLinearGradient1051" x1="336.184" y1="672.653" x2="443.774" y2="859.965" gradientUnits="userSpaceOnUse">
<stop stop-color="#FFFEF5"></stop>
<stop offset="1" stop-color="#FFFEF5"></stop>
</linearGradient>
<linearGradient id="SvgjsLinearGradient1050" x1="336.184" y1="672.653" x2="443.774" y2="859.965" gradientUnits="userSpaceOnUse">
<stop stop-color="#FDC192"></stop>
<stop offset="1" stop-color="#F4A261"></stop>
</linearGradient>
<linearGradient id="SvgjsLinearGradient1049" x1="512" y1="0" x2="512" y2="1024" gradientUnits="userSpaceOnUse">
<stop stop-color="#185BD4"></stop>
<stop offset="1" stop-color="#15397B"></stop>
</linearGradient>
<linearGradient id="SvgjsLinearGradient1048" x1="398.091" y1="-3.09128" x2="398.091" y2="984.909" gradientUnits="userSpaceOnUse">
<stop stop-color="#E5E5E8"></stop>
<stop offset="1" stop-color="#757575"></stop>
</linearGradient>
<linearGradient id="SvgjsLinearGradient1047" x1="70.9522" y1="274" x2="70.9522" y2="1262" gradientUnits="userSpaceOnUse">
<stop stop-color="#FAFAFD"></stop>
<stop offset="1" stop-color="#B5B5BA"></stop>
</linearGradient>
<clipPath id="SvgjsClipPath1046">
<rect width="1024" height="1024" fill="white"></rect>
</clipPath>
<clipPath id="SvgjsClipPath1045">
<rect width="1024" height="1024" fill="white"></rect>
</clipPath>
<clipPath id="SvgjsClipPath1044">
<rect width="1024" height="1024" fill="white"></rect>
</clipPath>
<clipPath id="SvgjsClipPath1043">
<rect width="1024" height="1024" fill="white"></rect>
</clipPath>
<clipPath id="SvgjsClipPath1042">
<rect width="1024" height="1024" fill="white"></rect>
</clipPath>
<clipPath id="SvgjsClipPath1041">
<rect width="1024" height="1024" fill="white"></rect>
</clipPath>
<clipPath id="SvgjsClipPath1040">
<rect width="1024" height="1024" fill="white"></rect>
</clipPath>
</defs>
</svg><style>@media (prefers-color-scheme: light) { :root { filter: none; } }
@media (prefers-color-scheme: dark) { :root { filter: none; } }
</style></svg>